<svg id="visual" viewBox="0 0 675 900" width="675" height="900" xmlns="http://www.w3.org/2000/svg" xmlns:xlink="http://www.w3.org/1999/xlink" version="1.1"><path d="M0 316L22.5 286C45 256 90 196 135 158.5C180 121 225 106 270 155.5C315 205 360 319 405 326.5C450 334 495 235 540 200.5C585 166 630 196 652.5 211L675 226L675 0L652.5 0C630 0 585 0 540 0C495 0 450 0 405 0C360 0 315 0 270 0C225 0 180 0 135 0C90 0 45 0 22.5 0L0 0Z" fill="#ad9ff7"></path><path d="M0 343L22.5 331C45 319 90 295 135 266.5C180 238 225 205 270 236.5C315 268 360 364 405 373C450 382 495 304 540 278.5C585 253 630 280 652.5 293.5L675 307L675 224L652.5 209C630 194 585 164 540 198.5C495 233 450 332 405 324.5C360 317 315 203 270 153.5C225 104 180 119 135 156.5C90 194 45 254 22.5 284L0 314Z" fill="#a190f5"></path><path d="M0 379L22.5 380.5C45 382 90 385 135 362.5C180 340 225 292 270 305.5C315 319 360 394 405 398.5C450 403 495 337 540 331C585 325 630 379 652.5 406L675 433L675 305L652.5 291.5C630 278 585 251 540 276.5C495 302 450 380 405 371C360 362 315 266 270 234.5C225 203 180 236 135 264.5C90 293 45 317 22.5 329L0 341Z" fill="#9482f2"></path><path d="M0 559L22.5 536.5C45 514 90 469 135 440.5C180 412 225 400 270 409C315 418 360 448 405 446.5C450 445 495 412 540 406C585 400 630 421 652.5 431.5L675 442L675 431L652.5 404C630 377 585 323 540 329C495 335 450 401 405 396.5C360 392 315 317 270 303.5C225 290 180 338 135 360.5C90 383 45 380 22.5 378.5L0 377Z" fill="#8873ef"></path><path d="M0 613L22.5 610C45 607 90 601 135 584.5C180 568 225 541 270 556C315 571 360 628 405 640C450 652 495 619 540 595C585 571 630 556 652.5 548.5L675 541L675 440L652.5 429.5C630 419 585 398 540 404C495 410 450 443 405 444.5C360 446 315 416 270 407C225 398 180 410 135 438.5C90 467 45 512 22.5 534.5L0 557Z" fill="#7b66dc"></path><path d="M0 649L22.5 652C45 655 90 661 135 638.5C180 616 225 565 270 584.5C315 604 360 694 405 713.5C450 733 495 682 540 676C585 670 630 709 652.5 728.5L675 748L675 539L652.5 546.5C630 554 585 569 540 593C495 617 450 650 405 638C360 626 315 569 270 554C225 539 180 566 135 582.5C90 599 45 605 22.5 608L0 611Z" fill="#6e59c9"></path><path d="M0 901L22.5 901C45 901 90 901 135 901C180 901 225 901 270 901C315 901 360 901 405 901C450 901 495 901 540 901C585 901 630 901 652.5 901L675 901L675 746L652.5 726.5C630 707 585 668 540 674C495 680 450 731 405 711.5C360 692 315 602 270 582.5C225 563 180 614 135 636.5C90 659 45 653 22.5 650L0 647Z" fill="#614db6"></path></svg>