<svg id="visual" viewBox="0 0 1200 300" width="1200" height="300" xmlns="http://www.w3.org/2000/svg" xmlns:xlink="http://www.w3.org/1999/xlink" version="1.1"><path d="M0 117L22.2 121.5C44.3 126 88.7 135 133.2 137.5C177.7 140 222.3 136 266.8 131.7C311.3 127.3 355.7 122.7 400 118.8C444.3 115 488.7 112 533.2 110C577.7 108 622.3 107 666.8 112.5C711.3 118 755.7 130 800 135.7C844.3 141.3 888.7 140.7 933.2 137.2C977.7 133.7 1022.3 127.3 1066.8 123.7C1111.3 120 1155.7 119 1177.8 118.5L1200 118L1200 0L1177.8 0C1155.7 0 1111.3 0 1066.8 0C1022.3 0 977.7 0 933.2 0C888.7 0 844.3 0 800 0C755.7 0 711.3 0 666.8 0C622.3 0 577.7 0 533.2 0C488.7 0 444.3 0 400 0C355.7 0 311.3 0 266.8 0C222.3 0 177.7 0 133.2 0C88.7 0 44.3 0 22.2 0L0 0Z" fill="#ffffff"></path><path d="M0 119L22.2 118C44.3 117 88.7 115 133.2 107.5C177.7 100 222.3 87 266.8 84.8C311.3 82.7 355.7 91.3 400 91.3C444.3 91.3 488.7 82.7 533.2 82.2C577.7 81.7 622.3 89.3 666.8 93.5C711.3 97.7 755.7 98.3 800 95.8C844.3 93.3 888.7 87.7 933.2 90.5C977.7 93.3 1022.3 104.7 1066.8 106.2C1111.3 107.7 1155.7 99.3 1177.8 95.2L1200 91L1200 0L1177.8 0C1155.7 0 1111.3 0 1066.8 0C1022.3 0 977.7 0 933.2 0C888.7 0 844.3 0 800 0C755.7 0 711.3 0 666.8 0C622.3 0 577.7 0 533.2 0C488.7 0 444.3 0 400 0C355.7 0 311.3 0 266.8 0C222.3 0 177.7 0 133.2 0C88.7 0 44.3 0 22.2 0L0 0Z" fill="#dbcffb"></path><path d="M0 54L22.2 53.8C44.3 53.7 88.7 53.3 133.2 52.3C177.7 51.3 222.3 49.7 266.8 54.7C311.3 59.7 355.7 71.3 400 71C444.3 70.7 488.7 58.3 533.2 54.3C577.7 50.3 622.3 54.7 666.8 56.3C711.3 58 755.7 57 800 58C844.3 59 888.7 62 933.2 60.7C977.7 59.3 1022.3 53.7 1066.8 56.8C1111.3 60 1155.7 72 1177.8 78L1200 84L1200 0L1177.8 0C1155.7 0 1111.3 0 1066.8 0C1022.3 0 977.7 0 933.2 0C888.7 0 844.3 0 800 0C755.7 0 711.3 0 666.8 0C622.3 0 577.7 0 533.2 0C488.7 0 444.3 0 400 0C355.7 0 311.3 0 266.8 0C222.3 0 177.7 0 133.2 0C88.7 0 44.3 0 22.2 0L0 0Z" fill="#b4a0f5"></path><path d="M0 46L22.2 45C44.3 44 88.7 42 133.2 43.2C177.7 44.3 222.3 48.7 266.8 49.2C311.3 49.7 355.7 46.3 400 46.2C444.3 46 488.7 49 533.2 46.8C577.7 44.7 622.3 37.3 666.8 34C711.3 30.7 755.7 31.3 800 34.5C844.3 37.7 888.7 43.3 933.2 43.2C977.7 43 1022.3 37 1066.8 36.5C1111.3 36 1155.7 41 1177.8 43.5L1200 46L1200 0L1177.8 0C1155.7 0 1111.3 0 1066.8 0C1022.3 0 977.7 0 933.2 0C888.7 0 844.3 0 800 0C755.7 0 711.3 0 666.8 0C622.3 0 577.7 0 533.2 0C488.7 0 444.3 0 400 0C355.7 0 311.3 0 266.8 0C222.3 0 177.7 0 133.2 0C88.7 0 44.3 0 22.2 0L0 0Z" fill="#8873ef"></path></svg>