<svg id="visual" viewBox="0 0 1200 300" width="1200" height="300" xmlns="http://www.w3.org/2000/svg" xmlns:xlink="http://www.w3.org/1999/xlink" version="1.1"><path d="M0 181L22.2 176.5C44.3 172 88.7 163 133.2 160.5C177.7 158 222.3 162 266.8 166.3C311.3 170.7 355.7 175.3 400 179.2C444.3 183 488.7 186 533.2 188C577.7 190 622.3 191 666.8 185.5C711.3 180 755.7 168 800 162.3C844.3 156.7 888.7 157.3 933.2 160.8C977.7 164.3 1022.3 170.7 1066.8 174.3C1111.3 178 1155.7 179 1177.8 179.5L1200 180L1200 301L1177.8 301C1155.7 301 1111.3 301 1066.8 301C1022.3 301 977.7 301 933.2 301C888.7 301 844.3 301 800 301C755.7 301 711.3 301 666.8 301C622.3 301 577.7 301 533.2 301C488.7 301 444.3 301 400 301C355.7 301 311.3 301 266.8 301C222.3 301 177.7 301 133.2 301C88.7 301 44.3 301 22.2 301L0 301Z" fill="#b097ff"></path><path d="M0 179L22.2 180C44.3 181 88.7 183 133.2 190.5C177.7 198 222.3 211 266.8 213.2C311.3 215.3 355.7 206.7 400 206.7C444.3 206.7 488.7 215.3 533.2 215.8C577.7 216.3 622.3 208.7 666.8 204.5C711.3 200.3 755.7 199.7 800 202.2C844.3 204.7 888.7 210.3 933.2 207.5C977.7 204.7 1022.3 193.3 1066.8 191.8C1111.3 190.3 1155.7 198.7 1177.8 202.8L1200 207L1200 301L1177.8 301C1155.7 301 1111.3 301 1066.8 301C1022.3 301 977.7 301 933.2 301C888.7 301 844.3 301 800 301C755.7 301 711.3 301 666.8 301C622.3 301 577.7 301 533.2 301C488.7 301 444.3 301 400 301C355.7 301 311.3 301 266.8 301C222.3 301 177.7 301 133.2 301C88.7 301 44.3 301 22.2 301L0 301Z" fill="#a38bfa"></path><path d="M0 244L22.2 244.2C44.3 244.3 88.7 244.7 133.2 245.7C177.7 246.7 222.3 248.3 266.8 243.3C311.3 238.3 355.7 226.7 400 227C444.3 227.3 488.7 239.7 533.2 243.7C577.7 247.7 622.3 243.3 666.8 241.7C711.3 240 755.7 241 800 240C844.3 239 888.7 236 933.2 237.3C977.7 238.7 1022.3 244.3 1066.8 241.2C1111.3 238 1155.7 226 1177.8 220L1200 214L1200 301L1177.8 301C1155.7 301 1111.3 301 1066.8 301C1022.3 301 977.7 301 933.2 301C888.7 301 844.3 301 800 301C755.7 301 711.3 301 666.8 301C622.3 301 577.7 301 533.2 301C488.7 301 444.3 301 400 301C355.7 301 311.3 301 266.8 301C222.3 301 177.7 301 133.2 301C88.7 301 44.3 301 22.2 301L0 301Z" fill="#967ff4"></path><path d="M0 252L22.2 253C44.3 254 88.7 256 133.2 254.8C177.7 253.7 222.3 249.3 266.8 248.8C311.3 248.3 355.7 251.7 400 251.8C444.3 252 488.7 249 533.2 251.2C577.7 253.3 622.3 260.7 666.8 264C711.3 267.3 755.7 266.7 800 263.5C844.3 260.3 888.7 254.7 933.2 254.8C977.7 255 1022.3 261 1066.8 261.5C1111.3 262 1155.7 257 1177.8 254.5L1200 252L1200 301L1177.8 301C1155.7 301 1111.3 301 1066.8 301C1022.3 301 977.7 301 933.2 301C888.7 301 844.3 301 800 301C755.7 301 711.3 301 666.8 301C622.3 301 577.7 301 533.2 301C488.7 301 444.3 301 400 301C355.7 301 311.3 301 266.8 301C222.3 301 177.7 301 133.2 301C88.7 301 44.3 301 22.2 301L0 301Z" fill="#8873ef"></path></svg>