<svg id="visual" viewBox="0 0 1200 200" width="1200" height="200" xmlns="http://www.w3.org/2000/svg" xmlns:xlink="http://www.w3.org/1999/xlink" version="1.1"><path d="M0 114L22.2 116C44.3 118 88.7 122 133.2 123.3C177.7 124.7 222.3 123.3 266.8 122.2C311.3 121 355.7 120 400 118.5C444.3 117 488.7 115 533.2 116.2C577.7 117.3 622.3 121.7 666.8 122.8C711.3 124 755.7 122 800 122.8C844.3 123.7 888.7 127.3 933.2 123.7C977.7 120 1022.3 109 1066.8 105.2C1111.3 101.3 1155.7 104.7 1177.8 106.3L1200 108L1200 201L1177.8 201C1155.7 201 1111.3 201 1066.8 201C1022.3 201 977.7 201 933.2 201C888.7 201 844.3 201 800 201C755.7 201 711.3 201 666.8 201C622.3 201 577.7 201 533.2 201C488.7 201 444.3 201 400 201C355.7 201 311.3 201 266.8 201C222.3 201 177.7 201 133.2 201C88.7 201 44.3 201 22.2 201L0 201Z" fill="#b097ff"></path><path d="M0 144L22.2 141.5C44.3 139 88.7 134 133.2 132.3C177.7 130.7 222.3 132.3 266.8 133.8C311.3 135.3 355.7 136.7 400 136.3C444.3 136 488.7 134 533.2 134.7C577.7 135.3 622.3 138.7 666.8 139C711.3 139.3 755.7 136.7 800 135.5C844.3 134.3 888.7 134.7 933.2 134.8C977.7 135 1022.3 135 1066.8 133.3C1111.3 131.7 1155.7 128.3 1177.8 126.7L1200 125L1200 201L1177.8 201C1155.7 201 1111.3 201 1066.8 201C1022.3 201 977.7 201 933.2 201C888.7 201 844.3 201 800 201C755.7 201 711.3 201 666.8 201C622.3 201 577.7 201 533.2 201C488.7 201 444.3 201 400 201C355.7 201 311.3 201 266.8 201C222.3 201 177.7 201 133.2 201C88.7 201 44.3 201 22.2 201L0 201Z" fill="#a38bfa"></path><path d="M0 146L22.2 146.8C44.3 147.7 88.7 149.3 133.2 149.5C177.7 149.7 222.3 148.3 266.8 148.7C311.3 149 355.7 151 400 151.8C444.3 152.7 488.7 152.3 533.2 151.5C577.7 150.7 622.3 149.3 666.8 150.2C711.3 151 755.7 154 800 156.8C844.3 159.7 888.7 162.3 933.2 161.8C977.7 161.3 1022.3 157.7 1066.8 157.2C1111.3 156.7 1155.7 159.3 1177.8 160.7L1200 162L1200 201L1177.8 201C1155.7 201 1111.3 201 1066.8 201C1022.3 201 977.7 201 933.2 201C888.7 201 844.3 201 800 201C755.7 201 711.3 201 666.8 201C622.3 201 577.7 201 533.2 201C488.7 201 444.3 201 400 201C355.7 201 311.3 201 266.8 201C222.3 201 177.7 201 133.2 201C88.7 201 44.3 201 22.2 201L0 201Z" fill="#967ff4"></path><path d="M0 181L22.2 178.3C44.3 175.7 88.7 170.3 133.2 170.7C177.7 171 222.3 177 266.8 177C311.3 177 355.7 171 400 170C444.3 169 488.7 173 533.2 175C577.7 177 622.3 177 666.8 177.2C711.3 177.3 755.7 177.7 800 175.3C844.3 173 888.7 168 933.2 165.8C977.7 163.7 1022.3 164.3 1066.8 166.5C1111.3 168.7 1155.7 172.3 1177.8 174.2L1200 176L1200 201L1177.8 201C1155.7 201 1111.3 201 1066.8 201C1022.3 201 977.7 201 933.2 201C888.7 201 844.3 201 800 201C755.7 201 711.3 201 666.8 201C622.3 201 577.7 201 533.2 201C488.7 201 444.3 201 400 201C355.7 201 311.3 201 266.8 201C222.3 201 177.7 201 133.2 201C88.7 201 44.3 201 22.2 201L0 201Z" fill="#8873ef"></path></svg>