<svg id="visual" viewBox="0 0 1200 300" width="1200" height="300" xmlns="http://www.w3.org/2000/svg" xmlns:xlink="http://www.w3.org/1999/xlink" version="1.1"><path d="M0 182L22.2 179.5C44.3 177 88.7 172 133.2 170C177.7 168 222.3 169 266.8 165.3C311.3 161.7 355.7 153.3 400 157C444.3 160.7 488.7 176.3 533.2 176.3C577.7 176.3 622.3 160.7 666.8 157.5C711.3 154.3 755.7 163.7 800 168.7C844.3 173.7 888.7 174.3 933.2 170.8C977.7 167.3 1022.3 159.7 1066.8 161.5C1111.3 163.3 1155.7 174.7 1177.8 180.3L1200 186L1200 301L1177.8 301C1155.7 301 1111.3 301 1066.8 301C1022.3 301 977.7 301 933.2 301C888.7 301 844.3 301 800 301C755.7 301 711.3 301 666.8 301C622.3 301 577.7 301 533.2 301C488.7 301 444.3 301 400 301C355.7 301 311.3 301 266.8 301C222.3 301 177.7 301 133.2 301C88.7 301 44.3 301 22.2 301L0 301Z" fill="#8873ef"></path><path d="M0 223L22.2 217C44.3 211 88.7 199 133.2 198.2C177.7 197.3 222.3 207.7 266.8 213.2C311.3 218.7 355.7 219.3 400 218.3C444.3 217.3 488.7 214.7 533.2 211.2C577.7 207.7 622.3 203.3 666.8 199.7C711.3 196 755.7 193 800 193C844.3 193 888.7 196 933.2 200.7C977.7 205.3 1022.3 211.7 1066.8 213C1111.3 214.3 1155.7 210.7 1177.8 208.8L1200 207L1200 301L1177.8 301C1155.7 301 1111.3 301 1066.8 301C1022.3 301 977.7 301 933.2 301C888.7 301 844.3 301 800 301C755.7 301 711.3 301 666.8 301C622.3 301 577.7 301 533.2 301C488.7 301 444.3 301 400 301C355.7 301 311.3 301 266.8 301C222.3 301 177.7 301 133.2 301C88.7 301 44.3 301 22.2 301L0 301Z" fill="#7b6df4"></path><path d="M0 216L22.2 220C44.3 224 88.7 232 133.2 233.2C177.7 234.3 222.3 228.7 266.8 224C311.3 219.3 355.7 215.7 400 215.2C444.3 214.7 488.7 217.3 533.2 219.8C577.7 222.3 622.3 224.7 666.8 225.2C711.3 225.7 755.7 224.3 800 222.2C844.3 220 888.7 217 933.2 218.5C977.7 220 1022.3 226 1066.8 228.2C1111.3 230.3 1155.7 228.7 1177.8 227.8L1200 227L1200 301L1177.8 301C1155.7 301 1111.3 301 1066.8 301C1022.3 301 977.7 301 933.2 301C888.7 301 844.3 301 800 301C755.7 301 711.3 301 666.8 301C622.3 301 577.7 301 533.2 301C488.7 301 444.3 301 400 301C355.7 301 311.3 301 266.8 301C222.3 301 177.7 301 133.2 301C88.7 301 44.3 301 22.2 301L0 301Z" fill="#6a67fa"></path><path d="M0 263L22.2 261.3C44.3 259.7 88.7 256.3 133.2 259C177.7 261.7 222.3 270.3 266.8 272C311.3 273.7 355.7 268.3 400 267.5C444.3 266.7 488.7 270.3 533.2 271.5C577.7 272.7 622.3 271.3 666.8 269.8C711.3 268.3 755.7 266.7 800 266.5C844.3 266.3 888.7 267.7 933.2 266.2C977.7 264.7 1022.3 260.3 1066.8 258.8C1111.3 257.3 1155.7 258.7 1177.8 259.3L1200 260L1200 301L1177.8 301C1155.7 301 1111.3 301 1066.8 301C1022.3 301 977.7 301 933.2 301C888.7 301 844.3 301 800 301C755.7 301 711.3 301 666.8 301C622.3 301 577.7 301 533.2 301C488.7 301 444.3 301 400 301C355.7 301 311.3 301 266.8 301C222.3 301 177.7 301 133.2 301C88.7 301 44.3 301 22.2 301L0 301Z" fill="#5562ff"></path></svg>