<svg id="visual" viewBox="0 0 1200 300" width="1200" height="300" xmlns="http://www.w3.org/2000/svg" xmlns:xlink="http://www.w3.org/1999/xlink" version="1.1"><path d="M0 165L22.2 165.2C44.3 165.3 88.7 165.7 133.2 164.2C177.7 162.7 222.3 159.3 266.8 162.8C311.3 166.3 355.7 176.7 400 177.2C444.3 177.7 488.7 168.3 533.2 162.7C577.7 157 622.3 155 666.8 157.5C711.3 160 755.7 167 800 167.8C844.3 168.7 888.7 163.3 933.2 160.8C977.7 158.3 1022.3 158.7 1066.8 163.8C1111.3 169 1155.7 179 1177.8 184L1200 189L1200 301L1177.8 301C1155.7 301 1111.3 301 1066.8 301C1022.3 301 977.7 301 933.2 301C888.7 301 844.3 301 800 301C755.7 301 711.3 301 666.8 301C622.3 301 577.7 301 533.2 301C488.7 301 444.3 301 400 301C355.7 301 311.3 301 266.8 301C222.3 301 177.7 301 133.2 301C88.7 301 44.3 301 22.2 301L0 301Z" fill="#b097ff"></path><path d="M0 211L22.2 205.7C44.3 200.3 88.7 189.7 133.2 187C177.7 184.3 222.3 189.7 266.8 189.7C311.3 189.7 355.7 184.3 400 188.3C444.3 192.3 488.7 205.7 533.2 207.3C577.7 209 622.3 199 666.8 196.2C711.3 193.3 755.7 197.7 800 201.8C844.3 206 888.7 210 933.2 212.8C977.7 215.7 1022.3 217.3 1066.8 214.8C1111.3 212.3 1155.7 205.7 1177.8 202.3L1200 199L1200 301L1177.8 301C1155.7 301 1111.3 301 1066.8 301C1022.3 301 977.7 301 933.2 301C888.7 301 844.3 301 800 301C755.7 301 711.3 301 666.8 301C622.3 301 577.7 301 533.2 301C488.7 301 444.3 301 400 301C355.7 301 311.3 301 266.8 301C222.3 301 177.7 301 133.2 301C88.7 301 44.3 301 22.2 301L0 301Z" fill="#a38bfa"></path><path d="M0 230L22.2 228.2C44.3 226.3 88.7 222.7 133.2 222.2C177.7 221.7 222.3 224.3 266.8 224C311.3 223.7 355.7 220.3 400 220.2C444.3 220 488.7 223 533.2 222.3C577.7 221.7 622.3 217.3 666.8 217.7C711.3 218 755.7 223 800 226.3C844.3 229.7 888.7 231.3 933.2 234.7C977.7 238 1022.3 243 1066.8 242.7C1111.3 242.3 1155.7 236.7 1177.8 233.8L1200 231L1200 301L1177.8 301C1155.7 301 1111.3 301 1066.8 301C1022.3 301 977.7 301 933.2 301C888.7 301 844.3 301 800 301C755.7 301 711.3 301 666.8 301C622.3 301 577.7 301 533.2 301C488.7 301 444.3 301 400 301C355.7 301 311.3 301 266.8 301C222.3 301 177.7 301 133.2 301C88.7 301 44.3 301 22.2 301L0 301Z" fill="#967ff4"></path><path d="M0 278L22.2 278.3C44.3 278.7 88.7 279.3 133.2 276.2C177.7 273 222.3 266 266.8 264.2C311.3 262.3 355.7 265.7 400 266.7C444.3 267.7 488.7 266.3 533.2 263.7C577.7 261 622.3 257 666.8 258.8C711.3 260.7 755.7 268.3 800 269.2C844.3 270 888.7 264 933.2 259.8C977.7 255.7 1022.3 253.3 1066.8 253.5C1111.3 253.7 1155.7 256.3 1177.8 257.7L1200 259L1200 301L1177.8 301C1155.7 301 1111.3 301 1066.8 301C1022.3 301 977.7 301 933.2 301C888.7 301 844.3 301 800 301C755.7 301 711.3 301 666.8 301C622.3 301 577.7 301 533.2 301C488.7 301 444.3 301 400 301C355.7 301 311.3 301 266.8 301C222.3 301 177.7 301 133.2 301C88.7 301 44.3 301 22.2 301L0 301Z" fill="#8873ef"></path></svg>