<svg id="visual" viewBox="0 0 1200 200" width="1200" height="200" xmlns="http://www.w3.org/2000/svg" xmlns:xlink="http://www.w3.org/1999/xlink" version="1.1"><path d="M0 92L22.2 90C44.3 88 88.7 84 133.2 82.2C177.7 80.3 222.3 80.7 266.8 83.2C311.3 85.7 355.7 90.3 400 89.3C444.3 88.3 488.7 81.7 533.2 80.7C577.7 79.7 622.3 84.3 666.8 83.2C711.3 82 755.7 75 800 71.5C844.3 68 888.7 68 933.2 69.2C977.7 70.3 1022.3 72.7 1066.8 73.5C1111.3 74.3 1155.7 73.7 1177.8 73.3L1200 73L1200 0L1177.8 0C1155.7 0 1111.3 0 1066.8 0C1022.3 0 977.7 0 933.2 0C888.7 0 844.3 0 800 0C755.7 0 711.3 0 666.8 0C622.3 0 577.7 0 533.2 0C488.7 0 444.3 0 400 0C355.7 0 311.3 0 266.8 0C222.3 0 177.7 0 133.2 0C88.7 0 44.3 0 22.2 0L0 0Z" fill="#b097ff"></path><path d="M0 61L22.2 61.8C44.3 62.7 88.7 64.3 133.2 65.5C177.7 66.7 222.3 67.3 266.8 65.8C311.3 64.3 355.7 60.7 400 58.7C444.3 56.7 488.7 56.3 533.2 57.8C577.7 59.3 622.3 62.7 666.8 62.8C711.3 63 755.7 60 800 57.2C844.3 54.3 888.7 51.7 933.2 52.2C977.7 52.7 1022.3 56.3 1066.8 58.8C1111.3 61.3 1155.7 62.7 1177.8 63.3L1200 64L1200 0L1177.8 0C1155.7 0 1111.3 0 1066.8 0C1022.3 0 977.7 0 933.2 0C888.7 0 844.3 0 800 0C755.7 0 711.3 0 666.8 0C622.3 0 577.7 0 533.2 0C488.7 0 444.3 0 400 0C355.7 0 311.3 0 266.8 0C222.3 0 177.7 0 133.2 0C88.7 0 44.3 0 22.2 0L0 0Z" fill="#a38bfa"></path><path d="M0 42L22.2 40.5C44.3 39 88.7 36 133.2 36.7C177.7 37.3 222.3 41.7 266.8 44C311.3 46.3 355.7 46.7 400 46.8C444.3 47 488.7 47 533.2 44.5C577.7 42 622.3 37 666.8 37.8C711.3 38.7 755.7 45.3 800 46.5C844.3 47.7 888.7 43.3 933.2 42.8C977.7 42.3 1022.3 45.7 1066.8 46C1111.3 46.3 1155.7 43.7 1177.8 42.3L1200 41L1200 0L1177.8 0C1155.7 0 1111.3 0 1066.8 0C1022.3 0 977.7 0 933.2 0C888.7 0 844.3 0 800 0C755.7 0 711.3 0 666.8 0C622.3 0 577.7 0 533.2 0C488.7 0 444.3 0 400 0C355.7 0 311.3 0 266.8 0C222.3 0 177.7 0 133.2 0C88.7 0 44.3 0 22.2 0L0 0Z" fill="#967ff4"></path><path d="M0 27L22.2 26.8C44.3 26.7 88.7 26.3 133.2 27.7C177.7 29 222.3 32 266.8 31.5C311.3 31 355.7 27 400 27C444.3 27 488.7 31 533.2 31.8C577.7 32.7 622.3 30.3 666.8 28.3C711.3 26.3 755.7 24.7 800 22.2C844.3 19.7 888.7 16.3 933.2 18.2C977.7 20 1022.3 27 1066.8 29.5C1111.3 32 1155.7 30 1177.8 29L1200 28L1200 0L1177.8 0C1155.7 0 1111.3 0 1066.8 0C1022.3 0 977.7 0 933.2 0C888.7 0 844.3 0 800 0C755.7 0 711.3 0 666.8 0C622.3 0 577.7 0 533.2 0C488.7 0 444.3 0 400 0C355.7 0 311.3 0 266.8 0C222.3 0 177.7 0 133.2 0C88.7 0 44.3 0 22.2 0L0 0Z" fill="#8873ef"></path></svg>